<?xml version="1.0" encoding="UTF-8"?><svg xmlns="http://www.w3.org/2000/svg" xmlns:xlink="http://www.w3.org/1999/xlink" stroke-dasharray="none" shape-rendering="auto" font-family="'Dialog'" width="1814" text-rendering="auto" fill-opacity="1" contentScriptType="text/ecmascript" color-interpolation="auto" color-rendering="auto" preserveAspectRatio="xMidYMid meet" font-size="12" fill="black" stroke="black" image-rendering="auto" stroke-miterlimit="10" zoomAndPan="magnify" version="1.0" stroke-linecap="square" stroke-linejoin="miter" contentStyleType="text/css" font-style="normal" height="796" stroke-width="1" stroke-dashoffset="0" font-weight="normal" stroke-opacity="1">
<!--Generated by the Batik Graphics2D SVG Generator-->
<defs id="genericDefs"/>
<g>
<defs id="defs1">
<clipPath clipPathUnits="userSpaceOnUse" id="clipPath1">
<path d="M37 75 L1777 75 L1777 773 L37 773 L37 75 Z"/>
</clipPath>
<clipPath clipPathUnits="userSpaceOnUse" id="clipPath2">
<path d="M-1 -1 L1815 -1 L1815 797 L-1 797 L-1 -1 Z"/>
</clipPath>
<clipPath clipPathUnits="userSpaceOnUse" id="clipPath3">
<path d="M50 4 L1765 4 L1765 63 L50 63 L50 4 Z"/>
</clipPath>
<clipPath clipPathUnits="userSpaceOnUse" id="clipPath4">
<path d="M37 771 L1777 771 L1777 797 L37 797 L37 771 Z"/>
</clipPath>
</defs>
<g font-size="15" fill="white" text-rendering="geometricPrecision" font-family="'Cantarell'" stroke-linejoin="round" stroke="white" stroke-width="0" stroke-miterlimit="0">
<rect x="38" y="76" clip-path="url(#clipPath1)" width="1738" height="696" stroke="none"/>
</g>
<g stroke-linecap="butt" font-size="15" fill="rgb(204,204,204)" text-rendering="geometricPrecision" font-family="'Cantarell'" stroke-dasharray="3,3" stroke="rgb(204,204,204)">
<line clip-path="url(#clipPath1)" fill="none" x1="38" x2="1776" y1="772" y2="772"/>
<line clip-path="url(#clipPath1)" fill="none" x1="38" x2="1776" y1="717" y2="717"/>
<line clip-path="url(#clipPath1)" fill="none" x1="38" x2="1776" y1="663" y2="663"/>
<line clip-path="url(#clipPath1)" fill="none" x1="38" x2="1776" y1="609" y2="609"/>
<line clip-path="url(#clipPath1)" fill="none" x1="38" x2="1776" y1="555" y2="555"/>
<line clip-path="url(#clipPath1)" fill="none" x1="38" x2="1776" y1="501" y2="501"/>
<line clip-path="url(#clipPath1)" fill="none" x1="38" x2="1776" y1="447" y2="447"/>
<line clip-path="url(#clipPath1)" fill="none" x1="38" x2="1776" y1="392" y2="392"/>
<line clip-path="url(#clipPath1)" fill="none" x1="38" x2="1776" y1="338" y2="338"/>
<line clip-path="url(#clipPath1)" fill="none" x1="38" x2="1776" y1="284" y2="284"/>
<line clip-path="url(#clipPath1)" fill="none" x1="38" x2="1776" y1="230" y2="230"/>
<line clip-path="url(#clipPath1)" fill="none" x1="38" x2="1776" y1="176" y2="176"/>
<line clip-path="url(#clipPath1)" fill="none" x1="38" x2="1776" y1="122" y2="122"/>
<rect x="1670" y="464" clip-path="url(#clipPath1)" fill="rgb(160,0,0)" width="52" height="307" stroke="none"/>
<rect x="1670" y="464" clip-path="url(#clipPath1)" fill="none" width="52" stroke-dasharray="none" height="307"/>
<rect x="1591" y="139" clip-path="url(#clipPath1)" fill="rgb(169,169,169)" width="52" stroke-dasharray="none" height="632" stroke="none"/>
<rect x="1591" y="139" clip-path="url(#clipPath1)" fill="none" width="52" stroke-dasharray="none" height="632"/>
<rect x="1512" y="769" clip-path="url(#clipPath1)" fill="green" width="52" stroke-dasharray="none" height="2" stroke="none"/>
<rect x="1433" y="772" clip-path="url(#clipPath1)" fill="rgb(255,165,0)" width="52" stroke-dasharray="none" height="1" stroke="none"/>
<rect x="1354" y="767" clip-path="url(#clipPath1)" fill="rgb(0,100,0)" width="52" stroke-dasharray="none" height="4" stroke="none"/>
<rect x="1354" y="767" clip-path="url(#clipPath1)" fill="none" width="52" stroke-dasharray="none" height="4"/>
<rect x="1275" y="771" clip-path="url(#clipPath1)" fill="rgb(238,0,0)" width="52" stroke-dasharray="none" height="1" stroke="none"/>
<rect x="1196" y="771" clip-path="url(#clipPath1)" fill="rgb(0,0,139)" width="52" stroke-dasharray="none" height="1" stroke="none"/>
<rect x="1117" y="771" clip-path="url(#clipPath1)" fill="rgb(160,32,240)" width="52" stroke-dasharray="none" height="1" stroke="none"/>
<rect x="1038" y="770" clip-path="url(#clipPath1)" fill="black" width="52" stroke-dasharray="none" height="1" stroke="none"/>
<rect x="959" y="771" clip-path="url(#clipPath1)" fill="yellow" width="52" stroke-dasharray="none" height="1" stroke="none"/>
<rect x="880" y="771" clip-path="url(#clipPath1)" fill="rgb(128,128,255)" width="52" stroke-dasharray="none" height="1" stroke="none"/>
<rect x="801" y="771" clip-path="url(#clipPath1)" fill="olive" width="52" stroke-dasharray="none" height="1" stroke="none"/>
<rect x="722" y="771" clip-path="url(#clipPath1)" fill="aqua" width="52" stroke-dasharray="none" height="1" stroke="none"/>
<rect x="643" y="772" clip-path="url(#clipPath1)" fill="teal" width="52" stroke-dasharray="none" height="1" stroke="none"/>
<rect x="564" y="771" clip-path="url(#clipPath1)" fill="rgb(160,0,0)" width="52" stroke-dasharray="none" height="1" stroke="none"/>
<rect x="485" y="771" clip-path="url(#clipPath1)" fill="rgb(169,169,169)" width="52" stroke-dasharray="none" height="1" stroke="none"/>
<rect x="406" y="771" clip-path="url(#clipPath1)" fill="green" width="52" stroke-dasharray="none" height="1" stroke="none"/>
<rect x="327" y="771" clip-path="url(#clipPath1)" fill="rgb(255,165,0)" width="52" stroke-dasharray="none" height="1" stroke="none"/>
<rect x="248" y="770" clip-path="url(#clipPath1)" fill="rgb(0,100,0)" width="52" stroke-dasharray="none" height="1" stroke="none"/>
<rect x="169" y="769" clip-path="url(#clipPath1)" fill="rgb(238,0,0)" width="52" stroke-dasharray="none" height="2" stroke="none"/>
<rect x="90" y="771" clip-path="url(#clipPath1)" fill="rgb(0,0,139)" width="52" stroke-dasharray="none" height="1" stroke="none"/>
<rect x="38" y="76" clip-path="url(#clipPath2)" fill="none" width="1738" stroke-dasharray="none" height="696" stroke="black"/>
<line clip-path="url(#clipPath2)" fill="none" x1="39" x2="1775" y1="772" y2="772" stroke-dasharray="none"/>
<rect x="51" y="5" clip-path="url(#clipPath3)" fill="white" width="1712" stroke-dasharray="none" height="56" stroke="none"/>
<rect x="51" y="5" clip-path="url(#clipPath3)" fill="none" width="1712" stroke-dasharray="none" height="56" stroke="black"/>
<rect x="61" y="13" clip-path="url(#clipPath3)" fill="rgb(0,0,139)" width="7" stroke-dasharray="none" height="7" stroke="none"/>
</g>
<g text-rendering="geometricPrecision" font-size="11" font-family="'Arial'" stroke-linecap="butt">
<text xml:space="preserve" x="73" y="20" clip-path="url(#clipPath3)" stroke="none">channelUtilization:last</text>
<rect x="191" y="13" clip-path="url(#clipPath3)" fill="rgb(238,0,0)" width="7" height="7" stroke="none"/>
<text xml:space="preserve" x="203" y="20" clip-path="url(#clipPath3)" stroke="none">collidedFrames:last</text>
<rect x="312" y="13" clip-path="url(#clipPath3)" fill="rgb(0,100,0)" width="7" height="7" stroke="none"/>
<text xml:space="preserve" x="324" y="20" clip-path="url(#clipPath3)" stroke="none">collisionLength:histogram:count</text>
<rect x="505" y="13" clip-path="url(#clipPath3)" fill="rgb(255,165,0)" width="7" height="7" stroke="none"/>
<text xml:space="preserve" x="517" y="20" clip-path="url(#clipPath3)" stroke="none">collisionLength:histogram:max</text>
<rect x="691" y="13" clip-path="url(#clipPath3)" fill="green" width="7" height="7" stroke="none"/>
<text xml:space="preserve" x="703" y="20" clip-path="url(#clipPath3)" stroke="none">collisionLength:histogram:mean</text>
<rect x="883" y="13" clip-path="url(#clipPath3)" fill="rgb(169,169,169)" width="7" height="7" stroke="none"/>
<text xml:space="preserve" x="895" y="20" clip-path="url(#clipPath3)" stroke="none">collisionLength:histogram:min</text>
<rect x="1065" y="13" clip-path="url(#clipPath3)" fill="rgb(160,0,0)" width="7" height="7" stroke="none"/>
<text xml:space="preserve" x="1077" y="20" clip-path="url(#clipPath3)" stroke="none">collisionLength:histogram:sqrsum</text>
<rect x="1267" y="13" clip-path="url(#clipPath3)" fill="teal" width="7" height="7" stroke="none"/>
<text xml:space="preserve" x="1279" y="20" clip-path="url(#clipPath3)" stroke="none">collisionLength:histogram:stddev</text>
<rect x="1466" y="13" clip-path="url(#clipPath3)" fill="aqua" width="7" height="7" stroke="none"/>
<text xml:space="preserve" x="1478" y="20" clip-path="url(#clipPath3)" stroke="none">collisionLength:histogram:sum</text>
<rect x="1652" y="13" clip-path="url(#clipPath3)" fill="olive" width="7" height="7" stroke="none"/>
<text xml:space="preserve" x="1664" y="20" clip-path="url(#clipPath3)" stroke="none">collisionLength:max</text>
<rect x="61" y="30" clip-path="url(#clipPath3)" fill="rgb(128,128,255)" width="7" height="7" stroke="none"/>
<text xml:space="preserve" x="73" y="37" clip-path="url(#clipPath3)" stroke="none">collisionLength:mean</text>
<rect x="191" y="30" clip-path="url(#clipPath3)" fill="yellow" width="7" height="7" stroke="none"/>
<text xml:space="preserve" x="203" y="37" clip-path="url(#clipPath3)" stroke="none">collisionLength:sum</text>
<rect x="312" y="30" clip-path="url(#clipPath3)" width="7" height="7" stroke="none"/>
<text xml:space="preserve" x="324" y="37" clip-path="url(#clipPath3)" stroke="none">collisionMultiplicity:histogram:count</text>
<rect x="505" y="30" clip-path="url(#clipPath3)" fill="rgb(160,32,240)" width="7" height="7" stroke="none"/>
<text xml:space="preserve" x="517" y="37" clip-path="url(#clipPath3)" stroke="none">collisionMultiplicity:histogram:max</text>
<rect x="691" y="30" clip-path="url(#clipPath3)" fill="rgb(0,0,139)" width="7" height="7" stroke="none"/>
<text xml:space="preserve" x="703" y="37" clip-path="url(#clipPath3)" stroke="none">collisionMultiplicity:histogram:mean</text>
<rect x="883" y="30" clip-path="url(#clipPath3)" fill="rgb(238,0,0)" width="7" height="7" stroke="none"/>
<text xml:space="preserve" x="895" y="37" clip-path="url(#clipPath3)" stroke="none">collisionMultiplicity:histogram:min</text>
<rect x="1065" y="30" clip-path="url(#clipPath3)" fill="rgb(0,100,0)" width="7" height="7" stroke="none"/>
<text xml:space="preserve" x="1077" y="37" clip-path="url(#clipPath3)" stroke="none">collisionMultiplicity:histogram:sqrsum</text>
<rect x="1267" y="30" clip-path="url(#clipPath3)" fill="rgb(255,165,0)" width="7" height="7" stroke="none"/>
<text xml:space="preserve" x="1279" y="37" clip-path="url(#clipPath3)" stroke="none">collisionMultiplicity:histogram:stddev</text>
<rect x="1466" y="30" clip-path="url(#clipPath3)" fill="green" width="7" height="7" stroke="none"/>
<text xml:space="preserve" x="1478" y="37" clip-path="url(#clipPath3)" stroke="none">collisionMultiplicity:histogram:sum</text>
<rect x="1652" y="30" clip-path="url(#clipPath3)" fill="rgb(169,169,169)" width="7" height="7" stroke="none"/>
<text xml:space="preserve" x="1664" y="37" clip-path="url(#clipPath3)" stroke="none">duration</text>
<rect x="61" y="47" clip-path="url(#clipPath3)" fill="rgb(160,0,0)" width="7" height="7" stroke="none"/>
<text xml:space="preserve" x="73" y="54" clip-path="url(#clipPath3)" stroke="none">receivedFrames:last</text>
<line clip-path="url(#clipPath2)" fill="none" x1="36" x2="36" y1="76" y2="772"/>
<line clip-path="url(#clipPath2)" fill="none" x1="1778" x2="1778" y1="76" y2="772"/>
<line clip-path="url(#clipPath2)" fill="none" x1="32" x2="36" y1="772" y2="772"/>
<line clip-path="url(#clipPath2)" fill="none" x1="1782" x2="1778" y1="772" y2="772"/>
<text xml:space="preserve" x="26" y="776" clip-path="url(#clipPath2)" stroke="none">0</text>
<text xml:space="preserve" x="1785" y="776" clip-path="url(#clipPath2)" stroke="none">0</text>
<line clip-path="url(#clipPath2)" fill="none" x1="34" x2="36" y1="744" y2="744"/>
<line clip-path="url(#clipPath2)" fill="none" x1="1780" x2="1778" y1="744" y2="744"/>
<line clip-path="url(#clipPath2)" fill="none" x1="32" x2="36" y1="717" y2="717"/>
<line clip-path="url(#clipPath2)" fill="none" x1="1782" x2="1778" y1="717" y2="717"/>
<text xml:space="preserve" x="16" y="721" clip-path="url(#clipPath2)" stroke="none">200</text>
<text xml:space="preserve" x="1785" y="721" clip-path="url(#clipPath2)" stroke="none">200</text>
<line clip-path="url(#clipPath2)" fill="none" x1="34" x2="36" y1="690" y2="690"/>
<line clip-path="url(#clipPath2)" fill="none" x1="1780" x2="1778" y1="690" y2="690"/>
<line clip-path="url(#clipPath2)" fill="none" x1="32" x2="36" y1="663" y2="663"/>
<line clip-path="url(#clipPath2)" fill="none" x1="1782" x2="1778" y1="663" y2="663"/>
<text xml:space="preserve" x="16" y="667" clip-path="url(#clipPath2)" stroke="none">400</text>
<text xml:space="preserve" x="1785" y="667" clip-path="url(#clipPath2)" stroke="none">400</text>
<line clip-path="url(#clipPath2)" fill="none" x1="34" x2="36" y1="636" y2="636"/>
<line clip-path="url(#clipPath2)" fill="none" x1="1780" x2="1778" y1="636" y2="636"/>
<line clip-path="url(#clipPath2)" fill="none" x1="32" x2="36" y1="609" y2="609"/>
<line clip-path="url(#clipPath2)" fill="none" x1="1782" x2="1778" y1="609" y2="609"/>
<text xml:space="preserve" x="16" y="613" clip-path="url(#clipPath2)" stroke="none">600</text>
<text xml:space="preserve" x="1785" y="613" clip-path="url(#clipPath2)" stroke="none">600</text>
<line clip-path="url(#clipPath2)" fill="none" x1="34" x2="36" y1="582" y2="582"/>
<line clip-path="url(#clipPath2)" fill="none" x1="1780" x2="1778" y1="582" y2="582"/>
<line clip-path="url(#clipPath2)" fill="none" x1="32" x2="36" y1="555" y2="555"/>
<line clip-path="url(#clipPath2)" fill="none" x1="1782" x2="1778" y1="555" y2="555"/>
<text xml:space="preserve" x="16" y="559" clip-path="url(#clipPath2)" stroke="none">800</text>
<text xml:space="preserve" x="1785" y="559" clip-path="url(#clipPath2)" stroke="none">800</text>
<line clip-path="url(#clipPath2)" fill="none" x1="34" x2="36" y1="528" y2="528"/>
<line clip-path="url(#clipPath2)" fill="none" x1="1780" x2="1778" y1="528" y2="528"/>
<line clip-path="url(#clipPath2)" fill="none" x1="32" x2="36" y1="501" y2="501"/>
<line clip-path="url(#clipPath2)" fill="none" x1="1782" x2="1778" y1="501" y2="501"/>
<text xml:space="preserve" x="11" y="505" clip-path="url(#clipPath2)" stroke="none">1000</text>
<text xml:space="preserve" x="1785" y="505" clip-path="url(#clipPath2)" stroke="none">1000</text>
<line clip-path="url(#clipPath2)" fill="none" x1="34" x2="36" y1="474" y2="474"/>
<line clip-path="url(#clipPath2)" fill="none" x1="1780" x2="1778" y1="474" y2="474"/>
<line clip-path="url(#clipPath2)" fill="none" x1="32" x2="36" y1="447" y2="447"/>
<line clip-path="url(#clipPath2)" fill="none" x1="1782" x2="1778" y1="447" y2="447"/>
<text xml:space="preserve" x="11" y="451" clip-path="url(#clipPath2)" stroke="none">1200</text>
<text xml:space="preserve" x="1785" y="451" clip-path="url(#clipPath2)" stroke="none">1200</text>
<line clip-path="url(#clipPath2)" fill="none" x1="34" x2="36" y1="419" y2="419"/>
<line clip-path="url(#clipPath2)" fill="none" x1="1780" x2="1778" y1="419" y2="419"/>
<line clip-path="url(#clipPath2)" fill="none" x1="32" x2="36" y1="392" y2="392"/>
<line clip-path="url(#clipPath2)" fill="none" x1="1782" x2="1778" y1="392" y2="392"/>
<text xml:space="preserve" x="11" y="396" clip-path="url(#clipPath2)" stroke="none">1400</text>
<text xml:space="preserve" x="1785" y="396" clip-path="url(#clipPath2)" stroke="none">1400</text>
<line clip-path="url(#clipPath2)" fill="none" x1="34" x2="36" y1="365" y2="365"/>
<line clip-path="url(#clipPath2)" fill="none" x1="1780" x2="1778" y1="365" y2="365"/>
<line clip-path="url(#clipPath2)" fill="none" x1="32" x2="36" y1="338" y2="338"/>
<line clip-path="url(#clipPath2)" fill="none" x1="1782" x2="1778" y1="338" y2="338"/>
<text xml:space="preserve" x="11" y="342" clip-path="url(#clipPath2)" stroke="none">1600</text>
<text xml:space="preserve" x="1785" y="342" clip-path="url(#clipPath2)" stroke="none">1600</text>
<line clip-path="url(#clipPath2)" fill="none" x1="34" x2="36" y1="311" y2="311"/>
<line clip-path="url(#clipPath2)" fill="none" x1="1780" x2="1778" y1="311" y2="311"/>
<line clip-path="url(#clipPath2)" fill="none" x1="32" x2="36" y1="284" y2="284"/>
<line clip-path="url(#clipPath2)" fill="none" x1="1782" x2="1778" y1="284" y2="284"/>
<text xml:space="preserve" x="11" y="288" clip-path="url(#clipPath2)" stroke="none">1800</text>
<text xml:space="preserve" x="1785" y="288" clip-path="url(#clipPath2)" stroke="none">1800</text>
<line clip-path="url(#clipPath2)" fill="none" x1="34" x2="36" y1="257" y2="257"/>
<line clip-path="url(#clipPath2)" fill="none" x1="1780" x2="1778" y1="257" y2="257"/>
<line clip-path="url(#clipPath2)" fill="none" x1="32" x2="36" y1="230" y2="230"/>
<line clip-path="url(#clipPath2)" fill="none" x1="1782" x2="1778" y1="230" y2="230"/>
<text xml:space="preserve" x="11" y="234" clip-path="url(#clipPath2)" stroke="none">2000</text>
<text xml:space="preserve" x="1785" y="234" clip-path="url(#clipPath2)" stroke="none">2000</text>
<line clip-path="url(#clipPath2)" fill="none" x1="34" x2="36" y1="203" y2="203"/>
<line clip-path="url(#clipPath2)" fill="none" x1="1780" x2="1778" y1="203" y2="203"/>
<line clip-path="url(#clipPath2)" fill="none" x1="32" x2="36" y1="176" y2="176"/>
<line clip-path="url(#clipPath2)" fill="none" x1="1782" x2="1778" y1="176" y2="176"/>
<text xml:space="preserve" x="11" y="180" clip-path="url(#clipPath2)" stroke="none">2200</text>
<text xml:space="preserve" x="1785" y="180" clip-path="url(#clipPath2)" stroke="none">2200</text>
<line clip-path="url(#clipPath2)" fill="none" x1="34" x2="36" y1="149" y2="149"/>
<line clip-path="url(#clipPath2)" fill="none" x1="1780" x2="1778" y1="149" y2="149"/>
<line clip-path="url(#clipPath2)" fill="none" x1="32" x2="36" y1="122" y2="122"/>
<line clip-path="url(#clipPath2)" fill="none" x1="1782" x2="1778" y1="122" y2="122"/>
<text xml:space="preserve" x="11" y="126" clip-path="url(#clipPath2)" stroke="none">2400</text>
<text xml:space="preserve" x="1785" y="126" clip-path="url(#clipPath2)" stroke="none">2400</text>
<line clip-path="url(#clipPath2)" fill="none" x1="34" x2="36" y1="94" y2="94"/>
<line clip-path="url(#clipPath2)" fill="none" x1="1780" x2="1778" y1="94" y2="94"/>
<line clip-path="url(#clipPath4)" fill="none" x1="90" x2="1722" y1="776" y2="776"/>
</g>
</g>
</svg>
